HIERARCHY
ROOT Hips
{
	OFFSET 0.000000 0.000000 0.000000
	CHANNELS 6 Xposition Yposition Zposition Xrotation Yrotation Zrotation
	JOINT LeftUpLeg_virtual
	{
		OFFSET 0.000000 0.000000 0.000000
		CHANNELS 3 Xrotation Yrotation Zrotation
		JOINT LeftUpLeg
		{
			OFFSET 11.394100 -6.187798 -0.413800
			CHANNELS 3 Xrotation Yrotation Zrotation
			JOINT LeftLeg
			{
				OFFSET 0.430247 -32.302673 3.732800
				CHANNELS 3 Xrotation Yrotation Zrotation
				JOINT LeftFoot
				{
					OFFSET -0.430247 -48.264931 -6.423300
					CHANNELS 3 Xrotation Yrotation Zrotation
					JOINT LeftToeBase
					{
						OFFSET 4.230900 -16.068199 23.438400
						CHANNELS 3 Xrotation Yrotation Zrotation
						JOINT LeftToe_End
						{
							OFFSET 4.510700 0.695400 19.974600
							CHANNELS 3 Xrotation Yrotation Zrotation
							End Site
							{
								OFFSET 0 0 0
							}
						}
					}
				}
			}
		}
	}
	JOINT RightUpLeg_virtual
	{
		OFFSET 0.000000 0.000000 0.000000
		CHANNELS 3 Xrotation Yrotation Zrotation
		JOINT RightUpLeg
		{
			OFFSET -11.333700 -6.187798 -0.413800
			CHANNELS 3 Xrotation Yrotation Zrotation
			JOINT RightLeg
			{
				OFFSET -0.430392 -32.302628 3.733000
				CHANNELS 3 Xrotation Yrotation Zrotation
				JOINT RightFoot
				{
					OFFSET 0.430392 -48.264973 -6.423500
					CHANNELS 3 Xrotation Yrotation Zrotation
					JOINT RightToeBase
					{
						OFFSET -4.230900 -16.068199 23.438400
						CHANNELS 3 Xrotation Yrotation Zrotation
						JOINT RightToe_End
						{
							OFFSET -4.510700 0.695400 19.974600
							CHANNELS 3 Xrotation Yrotation Zrotation
							End Site
							{
								OFFSET 0 0 0
							}
						}
					}
				}
			}
		}
	}
	JOINT Spine_virtual
	{
		OFFSET 0.000000 0.000000 0.000000
		CHANNELS 3 Xrotation Yrotation Zrotation
		JOINT Spine
		{
			OFFSET -0.002400 12.777504 0.315300
			CHANNELS 3 Xrotation Yrotation Zrotation
			JOINT Spine1
			{
				OFFSET -0.002067 5.816869 0.032633
				CHANNELS 3 Xrotation Yrotation Zrotation
				JOINT Spine1_split
				{
					OFFSET -0.002067 5.816869 0.032633
					CHANNELS 3 Xrotation Yrotation Zrotation
					JOINT Spine2
					{
						OFFSET -0.002067 5.816869 0.032633
						CHANNELS 3 Xrotation Yrotation Zrotation
						JOINT Neck_virtual
						{
							OFFSET 0.000000 0.000000 0.000000
							CHANNELS 3 Xrotation Yrotation Zrotation
							JOINT Neck
							{
								OFFSET -0.003700 21.199493 -0.826900
								CHANNELS 3 Xrotation Yrotation Zrotation
								JOINT Head
								{
									OFFSET 0.000000 20.442200 4.834800
									CHANNELS 3 Xrotation Yrotation Zrotation
									JOINT HeadTop_End
									{
										OFFSET 0.000000 34.668396 4.968400
										CHANNELS 3 Xrotation Yrotation Zrotation
										End Site
										{
											OFFSET 0 0 0
										}
									}
								}
							}
						}
						JOINT LeftShoulder_virtual
						{
							OFFSET 0.000000 0.000000 0.000000
							CHANNELS 3 Xrotation Yrotation Zrotation
							JOINT LeftShoulder
							{
								OFFSET 3.288150 8.794197 -1.372250
								CHANNELS 3 Xrotation Yrotation Zrotation
								JOINT LeftShoulder_split
								{
									OFFSET 3.288150 8.794197 -1.372250
									CHANNELS 3 Xrotation Yrotation Zrotation
									JOINT LeftArm
									{
										OFFSET 11.953299 -2.279007 -0.146200
										CHANNELS 3 Xrotation Yrotation Zrotation
										JOINT LeftForeArm
										{
											OFFSET 18.448900 0.000000 0.000000
											CHANNELS 3 Xrotation Yrotation Zrotation
											JOINT LeftHand
											{
												OFFSET 29.527798 0.000000 0.000000
												CHANNELS 3 Xrotation Yrotation Zrotation
												End Site
												{
													OFFSET 0 0 0
												}
											}
										}
									}
								}
							}
						}
						JOINT RightShoulder_virtual
						{
							OFFSET 0.000000 0.000000 0.000000
							CHANNELS 3 Xrotation Yrotation Zrotation
							JOINT RightShoulder
							{
								OFFSET -3.249400 8.794197 -1.372250
								CHANNELS 3 Xrotation Yrotation Zrotation
								JOINT RightShoulder_split
								{
									OFFSET -3.249400 8.794197 -1.372250
									CHANNELS 3 Xrotation Yrotation Zrotation
									JOINT RightArm
									{
										OFFSET -11.953299 -2.279007 -0.146200
										CHANNELS 3 Xrotation Yrotation Zrotation
										JOINT RightForeArm
										{
											OFFSET -18.448900 0.000000 0.000000
											CHANNELS 3 Xrotation Yrotation Zrotation
											JOINT RightHand
											{
												OFFSET -29.527802 0.000000 0.000000
												CHANNELS 3 Xrotation Yrotation Zrotation
												End Site
												{
													OFFSET 0 0 0
												}
											}
										}
									}
								}
							}
						}
					}
				}
			}
		}
	}
}
MOTION
Frames: 7
Frame Time: 0.03333333
13.706050 106.839882 -8.982979 0.000000 0.000000 0.000000 0.110590 25.589252 8.927996 -23.896255 0.634553 -6.291746 12.171130 14.966186 -0.632927 11.306827 3.936992 0.767692 0.019352 -1.972288 7.955200 0.000000 0.000000 0.000000 1.303006 22.724497 8.210079 8.571527 -16.514469 -6.519130 10.355121 -5.230570 -3.883628 -14.612281 -38.982888 25.673646 -8.699817 14.462610 0.132427 0.000000 0.000000 0.000000 6.182207 28.989478 4.200457 5.978561 -3.113093 12.791721 3.325058 7.920483 4.337500 0.030950 0.333035 0.157853 0.000000 0.000000 0.000000 7.177563 8.657384 5.515094 -25.223096 5.327265 6.308179 -42.667932 -22.941043 -48.433701 0.000000 0.000000 0.000000 2.175040 8.292174 4.095971 4.027943 5.181070 23.707400 2.034611 -5.178014 1.195152 -55.290115 12.390744 -30.808658 -18.510718 -12.098782 17.186301 0.000000 0.000000 0.000000 2.402557 7.815935 6.043899 3.170125 -4.711322 -6.484401 -4.630446 0.644403 -2.380139 16.734798 -2.996605 65.229912 -5.360388 -15.323466 2.319345 0.000000 0.000000 0.000000 
14.386888 105.316261 -9.265854 0.000000 0.000000 0.000000 -0.540508 34.722025 7.425638 -29.923240 -4.352318 -6.517494 15.268601 14.175755 -1.075029 14.708543 0.695732 -0.526524 -1.732452 -1.316755 7.943212 0.000000 0.000000 0.000000 0.647511 31.298580 6.641510 14.048448 -22.125720 -4.488436 6.449347 -4.234135 -2.932183 -16.451467 -37.328459 23.487561 -9.530713 13.527307 -0.036013 0.000000 0.000000 0.000000 7.246803 36.694583 2.575244 4.089449 -2.546569 11.062676 2.553014 8.732037 2.424031 -0.068835 0.294298 0.124632 0.000000 0.000000 0.000000 6.379366 9.344173 3.546554 -23.856780 0.061519 10.217675 -44.305935 -27.483086 -47.551169 0.000000 0.000000 0.000000 1.805002 9.035697 1.985828 1.956974 12.705779 24.604037 0.186855 -5.289047 0.576580 -70.125334 22.922574 -33.383612 -25.852968 -13.851578 14.296523 0.000000 0.000000 0.000000 2.264867 8.687421 3.957879 2.731146 -2.015031 -8.110117 -4.243504 0.648576 -2.201318 13.944077 -6.889951 68.066237 -5.615287 -14.936664 2.209178 0.000000 0.000000 0.000000 
14.752591 103.526283 -9.336391 0.000000 0.000000 0.000000 -0.305397 42.588541 5.972941 -36.377823 -8.813411 -7.186349 18.227255 13.129915 -1.290250 18.681952 -2.515911 -0.707237 -3.613161 -0.788820 7.807524 0.000000 0.000000 0.000000 0.641761 38.836900 5.307690 17.867177 -27.181194 -2.428992 3.632443 -3.256858 -1.868633 -17.905795 -35.338651 20.949341 -9.309941 12.326587 -1.030046 0.000000 0.000000 0.000000 8.266376 43.378234 1.182305 2.551868 -2.058657 9.327220 2.038532 9.088240 0.208855 -0.165371 0.203455 -0.007505 0.000000 0.000000 0.000000 5.570318 9.639042 1.294218 -22.011084 -3.946520 13.577208 -45.156959 -32.666841 -45.836993 0.000000 0.000000 0.000000 1.777942 9.272185 -0.307917 0.560880 17.274930 23.957616 0.506090 -5.722336 0.712078 -80.229260 30.837696 -37.815469 -31.369952 -16.228352 10.873027 0.000000 0.000000 0.000000 2.485522 9.137520 1.690710 2.529743 1.955402 -8.873030 -3.499942 0.764868 -1.830982 10.349372 -7.389381 69.647330 -6.304826 -14.715798 2.237151 0.000000 0.000000 0.000000 
14.887895 101.628571 -9.122978 0.000000 0.000000 0.000000 0.792219 48.851104 4.464268 -41.761231 -11.975021 -8.427598 19.712740 12.657287 -1.003238 21.512903 -4.698223 0.400679 -4.507682 -0.176566 7.043901 0.000000 0.000000 0.000000 1.415796 45.036194 4.074559 20.508632 -31.602841 -0.423355 1.412857 -2.316486 -0.854568 -19.571470 -33.284273 18.033166 -8.055222 11.054702 -2.865949 0.000000 0.000000 0.000000 9.291568 48.872196 -0.071244 1.331719 -1.658059 7.571687 1.866042 9.087555 -1.920520 -0.128246 0.036064 -0.103468 0.000000 0.000000 0.000000 4.885210 9.648935 -0.819847 -20.296032 -6.586491 15.853784 -45.909106 -37.974964 -43.679606 0.000000 0.000000 0.000000 1.949383 9.189773 -2.369671 -0.025674 19.036646 21.727050 1.718228 -5.736005 1.340935 -84.924817 36.420939 -43.787434 -35.371576 -18.321817 6.937912 0.000000 0.000000 0.000000 2.939125 9.259337 -0.352238 2.383784 6.636731 -8.939672 -2.332482 0.352738 -1.355323 5.919653 -5.465615 69.010893 -7.431164 -14.860029 2.416075 0.000000 0.000000 0.000000 
14.881921 99.856476 -8.638607 0.000000 0.000000 0.000000 2.626021 53.489947 2.932285 -45.384377 -13.831921 -10.057959 19.492824 12.577625 -0.103516 22.535933 -5.767718 2.092668 -4.092702 0.452913 5.971795 0.000000 0.000000 0.000000 2.830720 49.803520 2.919968 22.278646 -35.233712 1.430843 -0.280623 -1.381341 -0.009369 -21.684438 -31.376028 14.878857 -6.300090 9.841062 -5.334750 0.000000 0.000000 0.000000 10.725849 52.890243 -1.459810 0.384296 -1.258899 5.877716 1.972901 8.867268 -3.610888 -0.043924 0.013853 -0.148975 0.000000 0.000000 0.000000 4.466789 9.518617 -2.459757 -19.207112 -7.839827 16.587388 -46.989195 -42.806742 -41.445895 0.000000 0.000000 0.000000 2.189795 9.003241 -3.904159 0.022366 18.500288 18.267308 3.006359 -4.325928 2.590866 -84.906314 39.935993 -50.236731 -38.337804 -20.493701 2.290186 0.000000 0.000000 0.000000 3.402823 9.166933 -1.919356 2.121747 11.283531 -8.714884 -1.199640 -0.822608 -0.807720 0.299402 -2.800410 65.905820 -8.918496 -15.327004 2.766914 0.000000 0.000000 0.000000 
14.796399 98.227295 -8.109177 0.000000 0.000000 0.000000 4.603258 56.759616 1.603143 -47.774506 -14.965715 -11.744986 18.384877 12.223301 1.184785 22.631760 -6.531553 3.297833 -2.383370 1.012228 4.904997 0.000000 0.000000 0.000000 4.669044 53.125853 1.803156 23.239693 -37.996855 2.944135 -1.455565 -0.416023 0.638134 -23.844064 -29.602566 11.887082 -4.572855 8.756592 -7.985555 0.000000 0.000000 0.000000 12.297364 55.726878 -2.894150 -0.267441 -0.756483 4.328932 2.205327 8.621466 -4.702831 0.116188 0.059868 -0.152312 0.000000 0.000000 0.000000 4.358642 9.384134 -3.439144 -18.777892 -7.812198 15.595393 -48.769282 -46.713153 -39.596109 0.000000 0.000000 0.000000 2.299910 8.906151 -4.807720 0.317247 16.642753 13.984552 3.760714 -1.972803 3.699499 -82.141139 41.998755 -55.655301 -40.761527 -22.624547 -3.063601 0.000000 0.000000 0.000000 3.722229 9.055333 -2.914454 1.722573 15.002729 -8.632878 -0.268308 -2.295102 -0.114030 -6.967203 -0.361510 60.888958 -10.640067 -15.644999 3.271132 0.000000 0.000000 0.000000 
14.747771 96.857491 -7.726917 0.000000 0.000000 0.000000 6.403661 58.897985 0.574513 -49.829874 -15.565614 -13.228303 17.495726 11.265624 2.499545 22.885829 -7.563509 3.681977 0.135795 1.385077 4.129937 0.000000 0.000000 0.000000 6.702413 55.235644 0.701241 23.684735 -39.966125 4.065350 -2.051661 0.593354 1.138849 -25.491803 -27.963915 9.598053 -3.285673 7.830212 -10.193413 0.000000 0.000000 0.000000 13.972861 57.438408 -4.295368 -0.670653 -0.109433 3.073996 2.400935 8.487503 -5.206554 0.282483 0.239773 -0.049269 0.000000 0.000000 0.000000 4.461349 9.354698 -3.823477 -18.931322 -6.633807 13.217095 -51.142886 -49.671294 -38.371142 0.000000 0.000000 0.000000 2.255775 9.017725 -5.166139 0.547788 14.397267 9.183555 3.412212 0.892955 3.799838 -78.045560 43.010391 -59.242937 -43.135831 -25.102805 -9.346944 0.000000 0.000000 0.000000 3.872228 9.021351 -3.434053 1.265724 17.246470 -8.862515 0.135827 -3.338218 0.692928 -15.662495 1.572301 55.122765 -12.246804 -15.451247 3.943884 0.000000 0.000000 0.000000 
